<?xml version="1.0" encoding="UTF-8"?>
<svg version="1.1" xmlns="http://www.w3.org/2000/svg" width="225" height="225">
<path d="M0 0 C74.25 0 148.5 0 225 0 C225 74.25 225 148.5 225 225 C150.75 225 76.5 225 0 225 C0 150.75 0 76.5 0 0 Z " fill="#88B7F8" transform="translate(0,0)"/>
<path d="M0 0 C74.25 0 148.5 0 225 0 C225 50.16 225 100.32 225 152 C223.68 151.01 222.36 150.02 221 149 C220.01 148.67 219.02 148.34 218 148 C218 141.07 218 134.14 218 127 C215.03 127 212.06 127 209 127 C205.9375 124.875 205.9375 124.875 204 122 C203.49030173 118.81438583 203.28708196 117.01134885 205.17578125 114.33203125 C207.73286758 112.46486543 209.56068968 112.70214199 212.6875 112.8125 C213.68136719 112.83957031 214.67523438 112.86664063 215.69921875 112.89453125 C216.83810547 112.94673828 216.83810547 112.94673828 218 113 C216.06053517 107.1816055 214.58922821 103.23354599 209.19726562 99.87817383 C206.46358896 98.78561439 204.69663555 98.9960051 201.78125 99.32421875 C186.05390089 100.44472957 186.05390089 100.44472957 180.9609375 96.36767578 C177.17283809 91.58205848 174.90267162 85.96218964 172.52246094 80.38330078 C169.92306955 74.60678284 166.78829384 69.12821445 163.69311523 63.6060791 C162.64821954 61.72920761 161.62307257 59.84288372 160.60351562 57.95214844 C154.03137301 44.80598407 154.03137301 44.80598407 142.39517212 36.81114197 C134.52904944 34.93184336 126.29304735 35.38553392 118.25 35.3984375 C116.2255824 35.39065116 114.20116804 35.38197928 112.17675781 35.37246704 C107.94715754 35.35759784 103.71789135 35.35808563 99.48828125 35.36865234 C94.08802987 35.38025047 88.68914849 35.34633518 83.28912354 35.299963 C79.1127127 35.27039923 74.93662879 35.26875653 70.76013184 35.27498245 C68.76995119 35.27396099 66.77975104 35.26357913 64.78967285 35.24335861 C51.07421157 34.76609189 51.07421157 34.76609189 38.81420898 40.06996155 C32.86346396 46.40063614 30.71836763 55.25793288 28.1875 63.37109375 C27.49797246 65.51255554 26.80785122 67.65382625 26.1171875 69.79492188 C25.05022714 73.1327509 23.98910195 76.47217677 22.93847656 79.81518555 C21.91239284 83.06832655 20.86409013 86.3136236 19.8125 89.55859375 C19.50401123 90.56168076 19.19552246 91.56476776 18.87768555 92.59825134 C16.60367509 99.54786036 16.60367509 99.54786036 13.37109375 101.96899414 C12.58863281 102.30922607 11.80617188 102.64945801 11 103 C9.04730672 106.27773515 7.86062001 109.31049015 7 113 C7.75925781 112.95359375 8.51851562 112.9071875 9.30078125 112.859375 C10.29464844 112.82328125 11.28851563 112.7871875 12.3125 112.75 C13.29863281 112.70359375 14.28476563 112.6571875 15.30078125 112.609375 C18 113 18 113 19.8671875 114.7890625 C21.56322657 118.09926289 20.85006623 120.46895567 20 124 C19.01 124.99 19.01 124.99 18 126 C14.37 126 10.74 126 7 126 C7 133.26 7 140.52 7 148 C5.35 148.33 3.7 148.66 2 149 C1.67 149.99 1.34 150.98 1 152 C0.67 152 0.34 152 0 152 C0 101.84 0 51.68 0 0 Z " fill="#FEFEFE" transform="translate(0,0)"/>
<path d="M0 0 C1.65 1.32 3.3 2.64 5 4 C7.64813932 4.68273592 7.64813932 4.68273592 10.3125 4.75 C11.63701172 4.83507812 11.63701172 4.83507812 12.98828125 4.921875 C13.65214844 4.94765625 14.31601563 4.9734375 15 5 C15.23074219 5.66386719 15.46148437 6.32773438 15.69921875 7.01171875 C18.87513371 15.6105399 22.89065752 19.87160746 31 24 C37.45706013 25.93325154 43.11025098 25.73410701 49.25 22.875 C57.19666024 18.47112327 59.24964039 13.43830911 63 5 C94.68 5 126.36 5 159 5 C160.98 9.95 160.98 9.95 163 15 C167.54252593 21.01216667 174.56231894 24.50890271 181.9375 25.5625 C189.18115831 24.99063224 195.99995023 22.62003231 201 17.25 C204.00670259 13.41411085 205.59022504 9.64396457 207 5 C207.88042969 4.97421875 208.76085937 4.9484375 209.66796875 4.921875 C211.41013672 4.83679688 211.41013672 4.83679688 213.1875 4.75 C214.33605469 4.70359375 215.48460937 4.6571875 216.66796875 4.609375 C220.60893719 4.16068393 220.60893719 4.16068393 225 0 C225 22.44 225 44.88 225 68 C150.75 68 76.5 68 0 68 C0 45.56 0 23.12 0 0 Z " fill="#FEFEFE" transform="translate(0,157)"/>
<path d="M0 0 C7.33968976 -0.10495267 14.67665218 -0.2051022 22.01644135 -0.25875092 C25.43454694 -0.2851208 28.85202946 -0.32033728 32.26977539 -0.37719727 C36.19409584 -0.44207403 40.11816474 -0.4662107 44.04296875 -0.48828125 C45.26396774 -0.51408768 46.48496674 -0.5398941 47.7429657 -0.56648254 C56.2018695 -0.5692828 56.2018695 -0.5692828 60.12573242 2.22949219 C63.53602743 7.27052746 63.53602743 7.27052746 64.9453125 9.81640625 C65.71742065 11.19675049 65.71742065 11.19675049 66.50512695 12.60498047 C67.30696411 14.06895264 67.30696411 14.06895264 68.125 15.5625 C68.68469482 16.56941895 69.24438965 17.57633789 69.82104492 18.61376953 C70.97914964 20.70048298 72.13333598 22.78937565 73.28369141 24.88037109 C74.94510378 27.90021851 76.61747387 30.9137294 78.29296875 33.92578125 C79.3001042 35.74184102 80.30664329 37.55823167 81.3125 39.375 C81.7863916 40.23037354 82.2602832 41.08574707 82.74853516 41.96704102 C83.17827637 42.74877686 83.60801758 43.5305127 84.05078125 44.3359375 C84.42887939 45.02220215 84.80697754 45.7084668 85.1965332 46.41552734 C86 48 86 48 86 49 C79.73 49 73.46 49 67 49 C67.82045144 45.71819425 68.3375663 44.23954765 70.0625 41.5625 C71.8430517 38.57991521 72.42839099 36.53422566 72 33 C70.68 33 69.36 33 68 33 C66.56159774 34.46985776 66.56159774 34.46985776 65.4921875 36.5 C64.84830078 37.5828125 64.84830078 37.5828125 64.19140625 38.6875 C63.75699219 39.450625 63.32257813 40.21375 62.875 41 C62.00376395 42.50370769 61.12647247 44.00392876 60.2421875 45.5 C59.66766846 46.50546875 59.66766846 46.50546875 59.08154297 47.53125 C58.72463379 48.0159375 58.36772461 48.500625 58 49 C57.34 49 56.68 49 56 49 C55.02604837 47.60067793 54.1199312 46.153755 53.25 44.6875 C50.63865223 40.6239881 48.626683 38.70986111 44 37 C42.6609571 36.34487686 41.32643192 35.68029448 40 35 C40.54269531 34.75765625 41.08539063 34.5153125 41.64453125 34.265625 C42.35996094 33.93046875 43.07539062 33.5953125 43.8125 33.25 C44.87404297 32.76273438 44.87404297 32.76273438 45.95703125 32.265625 C48.39428985 30.7557363 49.57550428 29.49065556 51 27 C51.43568488 24.35482743 51.43568488 24.35482743 51.3125 21.5625 C51.30669922 20.17224609 51.30669922 20.17224609 51.30078125 18.75390625 C50.9803386 15.8199833 50.31210838 13.63807706 49 11 C44.94527652 8.54259183 39.70738971 7.79244313 35 8 C30.97738113 10.01130944 28.3875507 12.21686092 26 16 C25.10513651 20.88547094 25.50728051 24.95770878 27.625 29.4375 C30.21105666 32.22771903 32.49789695 33.56732148 36 35 C35.2265625 35.3403125 35.2265625 35.3403125 34.4375 35.6875 C32.39020982 36.78988702 30.44439743 37.91632404 28.5 39.1875 C27.9328125 39.55230469 27.365625 39.91710937 26.78125 40.29296875 C24.23386533 42.57270619 24.23386533 42.57270619 21 49 C14.07 49 7.14 49 0 49 C0 32.83 0 16.66 0 0 Z " fill="#FDFDFE" transform="translate(81,49)"/>
<path d="M0 0 C5.00817267 3.76744996 8.20808868 8.70752164 10.16015625 14.625 C11.06752262 21.99854562 10.82778063 28.37118229 6.7109375 34.69140625 C2.1091415 40.42916197 -3.45763276 44.8101232 -10.9296875 45.94140625 C-18.33587312 46.3449067 -25.28546657 43.78096038 -31.21484375 39.375 C-36.66030703 33.67022894 -39.26040851 26.80307762 -39.11328125 18.90234375 C-38.2503713 11.71553662 -35.03672629 5.82008568 -29.671875 1.03125 C-21.00274839 -5.62309025 -9.32959873 -5.33986789 0 0 Z " fill="#0D3898" transform="translate(52.83984375,137.375)"/>
<path d="M0 0 C5.42919402 3.09986608 10.2145646 7.98053401 12.2890625 13.984375 C13.61202065 22.16825568 13.3908386 30.06812842 8.625 37.0625 C2.79288057 43.81617329 -3.53782467 46.34881839 -12.1875 47.625 C-18.93372802 47.30053212 -25.86384144 43.77165375 -30.40625 38.87109375 C-34.83136128 32.46118991 -37.45304484 25.95882844 -36.375 18.0625 C-34.44438887 9.92542757 -30.22055218 4.7724246 -23.375 0.0625 C-16.16294542 -3.52003526 -7.29619182 -3.24026895 0 0 Z " fill="#0D3798" transform="translate(194.375,135.9375)"/>
<path d="M0 0 C0 16.5 0 33 0 50 C-11.88 50 -23.76 50 -36 50 C-33.74827515 39.86723819 -33.74827515 39.86723819 -32.64306641 36.53759766 C-32.39585846 35.78717194 -32.14865051 35.03674622 -31.89395142 34.26358032 C-31.63246307 33.48823944 -31.37097473 32.71289856 -31.1015625 31.9140625 C-30.82533051 31.09046234 -30.54909851 30.26686218 -30.26449585 29.41830444 C-29.68384587 27.69480992 -29.1005325 25.97221057 -28.51464844 24.25048828 C-27.62167899 21.6151992 -26.74828031 18.97389999 -25.875 16.33203125 C-25.30587887 14.65063794 -24.73560692 12.96963362 -24.1640625 11.2890625 C-23.90662262 10.50157623 -23.64918274 9.71408997 -23.38394165 8.90274048 C-23.00367325 7.80547134 -23.00367325 7.80547134 -22.61572266 6.68603516 C-22.39969391 6.04477692 -22.18366516 5.40351868 -21.96109009 4.74282837 C-17.35269832 -3.61396982 -8.8453556 0 0 0 Z " fill="#FBFCFE" transform="translate(67,49)"/>
<path d="M0 0 C32.67 0 65.34 0 99 0 C98.34 4.62 97.68 9.24 97 14 C65.65 14 34.3 14 2 14 C1.34 9.38 0.68 4.76 0 0 Z " fill="#327BF0" transform="translate(61,148)"/>
<path d="M0 0 C3.37933773 2.78298401 4.86717677 4.89423938 5.48046875 9.30859375 C5.71130901 13.90668211 5.83743352 17.60031478 2.875 21.3125 C0.56597017 23.35914008 -1.14079189 24.48221547 -3.875 25.75 C-3.35550781 26.02972656 -2.83601563 26.30945313 -2.30078125 26.59765625 C2.98067348 29.63376054 5.97030346 32.52503385 9.125 37.75 C9.125 38.41 9.125 39.07 9.125 39.75 C10.115 40.245 10.115 40.245 11.125 40.75 C-8.015 40.75 -27.155 40.75 -46.875 40.75 C-46.875 40.42 -46.875 40.09 -46.875 39.75 C-39.945 39.75 -33.015 39.75 -25.875 39.75 C-25.215 38.1 -24.555 36.45 -23.875 34.75 C-20.86570067 30.18032323 -17.62719926 28.21748808 -12.875 25.75 C-13.803125 25.193125 -14.73125 24.63625 -15.6875 24.0625 C-19.62662459 21.20470373 -21.44273236 19.3174078 -22.26171875 14.453125 C-22.59018944 9.63555495 -22.2533238 6.53566778 -19.125 2.75 C-13.45073847 -3.2108404 -7.32268853 -3.18377762 0 0 Z " fill="#B6DAF9" transform="translate(127.875,58.25)"/>
<path d="M0 0 C2.8100346 1.79363911 4.50940468 3.01880935 6 6 C6.45487581 10.54875813 6.71689456 13.67392638 3.9375 17.4375 C0.41360794 20.5115335 -1.34975862 21.08158318 -6 21 C-10.08649969 19.50685588 -13.02204631 17.95590738 -15 14 C-15.49677002 10.64680233 -15.74097161 8.229464 -13.9453125 5.25 C-9.85013559 0.20978226 -6.39783462 -0.91922911 0 0 Z " fill="#2E77ED" transform="translate(187,148)"/>
<path d="M0 0 C2.8100346 1.79363911 4.50940468 3.01880935 6 6 C6.45487581 10.54875813 6.71689456 13.67392638 3.9375 17.4375 C0.41360794 20.5115335 -1.34975862 21.08158318 -6 21 C-9.60115926 19.75344487 -11.47582284 18.64648516 -13.875 15.6875 C-15.25127684 12.39972755 -15.57684834 10.53319608 -15 7 C-11.15686425 0.87945047 -7.17486614 -1.03087157 0 0 Z " fill="#2E77EE" transform="translate(43,148)"/>
<path d="M0 0 C2.4178712 -0.10826289 4.83087556 -0.18739789 7.25 -0.25 C8.27287109 -0.30027344 8.27287109 -0.30027344 9.31640625 -0.3515625 C12.76471886 -0.41852003 14.65528052 -0.2487834 17.484375 1.79296875 C19 4 19 4 19 7.5625 C17.87768796 11.42044765 17.42667139 12.1164654 14 14 C10.765625 14.29296875 10.765625 14.29296875 7.25 14.1875 C5.1875 14.125625 3.125 14.06375 1 14 C0.67 9.38 0.34 4.76 0 0 Z " fill="#337BEF" transform="translate(206,148)"/>
<path d="M0 0 C0 4.62 0 9.24 0 14 C-10.05859375 14.09765625 -10.05859375 14.09765625 -13 14 C-14.56941198 12.43058802 -14.2449847 10.85865006 -14.3125 8.6875 C-14.24902914 5.62136933 -14.0982291 4.18306331 -12.625 1.4375 C-8.45216495 -0.84762396 -4.70790603 -0.24778453 0 0 Z " fill="#B4D8F8" transform="translate(218,134)"/>
<path d="M0 0 C-0.66 4.62 -1.32 9.24 -2 14 C-10.14864865 14.60810811 -10.14864865 14.60810811 -14.0625 11.8125 C-16 9 -16 9 -16.5625 6.4375 C-14.6022434 -2.05694525 -6.91161603 -0.30050504 0 0 Z " fill="#327BEF" transform="translate(16,148)"/>
<path d="M0 0 C0 4.62 0 9.24 0 14 C-8.12604043 14.60642093 -8.12604043 14.60642093 -12.0625 11.875 C-14.32427783 8.51881355 -14.68944734 6.96432218 -14 3 C-10.63679512 -1.77105808 -5.25468224 -0.18545937 0 0 Z " fill="#F4CD70" transform="translate(218,113)"/>
<path d="M0 0 C8.30078125 -0.390625 8.30078125 -0.390625 11 0 C12.8671875 1.7890625 12.8671875 1.7890625 14 4 C13.67272727 10.32727273 13.67272727 10.32727273 11 13 C7.31975395 13.27629475 3.69505443 13.0859315 0 13 C0 8.71 0 4.42 0 0 Z " fill="#EC702E" transform="translate(7,113)"/>
<path d="M0 0 C0.73734375 -0.01224609 1.4746875 -0.02449219 2.234375 -0.03710938 C4.15770058 -0.04237395 6.08054263 0.06546553 8 0.1875 C8.66 0.8475 9.32 1.5075 10 2.1875 C9.44444444 6.74305556 9.44444444 6.74305556 8 8.1875 C5.36070903 8.34101581 2.76560041 8.41913061 0.125 8.4375 C-0.97521484 8.4684375 -0.97521484 8.4684375 -2.09765625 8.5 C-7.48626952 8.5392613 -7.48626952 8.5392613 -10.01953125 6.8046875 C-11 5.1875 -11 5.1875 -10.8125 3.0625 C-8.95682376 -1.21982979 -4.00570853 0.00350149 0 0 Z " fill="#F1F6FE" transform="translate(95,104.8125)"/>
<path d="M0 0 C1.65 0.33 3.3 0.66 5 1 C4.72932343 7.36089946 2.5689944 12.45122239 -2 17 C-5.875 17.5625 -5.875 17.5625 -9 17 C-8.35826346 12.88473708 -6.13013842 9.69611565 -3.9375 6.25 C-3.56044922 5.64800781 -3.18339844 5.04601562 -2.79492188 4.42578125 C-1.86806837 2.94750857 -0.93467611 1.47333911 0 0 Z " fill="#123A9A" transform="translate(149,81)"/>
</svg>
